<?xml version="1.0" encoding="utf-8" standalone="no"?>
<!DOCTYPE svg PUBLIC "-//W3C//DTD SVG 1.1//EN"
  "http://www.w3.org/Graphics/SVG/1.1/DTD/svg11.dtd">
<svg xmlns:xlink="http://www.w3.org/1999/xlink" width="731.5125pt" height="514.485pt" viewBox="0 0 731.5125 514.485" xmlns="http://www.w3.org/2000/svg" version="1.1">
 <metadata>
  <rdf:RDF xmlns:dc="http://purl.org/dc/elements/1.1/" xmlns:cc="http://creativecommons.org/ns#" xmlns:rdf="http://www.w3.org/1999/02/22-rdf-syntax-ns#">
   <cc:Work>
    <dc:type rdf:resource="http://purl.org/dc/dcmitype/StillImage"/>
    <dc:date>2026-05-30T03:54:24.912446</dc:date>
    <dc:format>image/svg+xml</dc:format>
    <dc:creator>
     <cc:Agent>
      <dc:title>Matplotlib v3.10.8, https://matplotlib.org/</dc:title>
     </cc:Agent>
    </dc:creator>
   </cc:Work>
  </rdf:RDF>
 </metadata>
 <defs>
  <style type="text/css">*{stroke-linejoin: round; stroke-linecap: butt}</style>
 </defs>
 <g id="figure_1">
  <g id="patch_1">
   <path d="M 0 514.485 
L 731.5125 514.485 
L 731.5125 0 
L 0 0 
z
" style="fill: #ffffff"/>
  </g>
  <g id="axes_1">
   <g id="patch_2">
    <path d="M 54.7125 478.44 
L 724.3125 478.44 
L 724.3125 7.2 
L 54.7125 7.2 
z
" style="fill: #ffffff"/>
   </g>
   <g id="matplotlib.axis_1">
    <g id="xtick_1">
     <g id="line2d_1">
      <path d="M 78.334411 478.44 
L 78.334411 7.2 
" clip-path="url(#p07a7443146)" style="fill: none; stroke: #bbbbbb; stroke-opacity: 0.5; stroke-width: 0.7; stroke-linecap: round"/>
     </g>
     <g id="line2d_2"/>
     <g id="text_1">
      <!-- 0 -->
      <g style="fill: #262626" transform="translate(75.553942 489.097813) scale(0.1 -0.1)">
       <defs>
        <path id="ArialMT-30" d="M 266 2259 
Q 266 3072 433 3567 
Q 600 4063 929 4331 
Q 1259 4600 1759 4600 
Q 2128 4600 2406 4451 
Q 2684 4303 2865 4023 
Q 3047 3744 3150 3342 
Q 3253 2941 3253 2259 
Q 3253 1453 3087 958 
Q 2922 463 2592 192 
Q 2263 -78 1759 -78 
Q 1097 -78 719 397 
Q 266 969 266 2259 
z
M 844 2259 
Q 844 1131 1108 757 
Q 1372 384 1759 384 
Q 2147 384 2411 759 
Q 2675 1134 2675 2259 
Q 2675 3391 2411 3762 
Q 2147 4134 1753 4134 
Q 1366 4134 1134 3806 
Q 844 3388 844 2259 
z
" transform="scale(0.015625)"/>
       </defs>
       <use xlink:href="#ArialMT-30"/>
      </g>
     </g>
    </g>
    <g id="xtick_2">
     <g id="line2d_3">
      <path d="M 191.884351 478.44 
L 191.884351 7.2 
" clip-path="url(#p07a7443146)" style="fill: none; stroke: #bbbbbb; stroke-opacity: 0.5; stroke-width: 0.7; stroke-linecap: round"/>
     </g>
     <g id="line2d_4"/>
     <g id="text_2">
      <!-- 20 -->
      <g style="fill: #262626" transform="translate(186.323413 489.097813) scale(0.1 -0.1)">
       <defs>
        <path id="ArialMT-32" d="M 3222 541 
L 3222 0 
L 194 0 
Q 188 203 259 391 
Q 375 700 629 1000 
Q 884 1300 1366 1694 
Q 2113 2306 2375 2664 
Q 2638 3022 2638 3341 
Q 2638 3675 2398 3904 
Q 2159 4134 1775 4134 
Q 1369 4134 1125 3890 
Q 881 3647 878 3216 
L 300 3275 
Q 359 3922 746 4261 
Q 1134 4600 1788 4600 
Q 2447 4600 2831 4234 
Q 3216 3869 3216 3328 
Q 3216 3053 3103 2787 
Q 2991 2522 2730 2228 
Q 2469 1934 1863 1422 
Q 1356 997 1212 845 
Q 1069 694 975 541 
L 3222 541 
z
" transform="scale(0.015625)"/>
       </defs>
       <use xlink:href="#ArialMT-32"/>
       <use xlink:href="#ArialMT-30" transform="translate(55.615234 0)"/>
      </g>
     </g>
    </g>
    <g id="xtick_3">
     <g id="line2d_5">
      <path d="M 305.43429 478.44 
L 305.43429 7.2 
" clip-path="url(#p07a7443146)" style="fill: none; stroke: #bbbbbb; stroke-opacity: 0.5; stroke-width: 0.7; stroke-linecap: round"/>
     </g>
     <g id="line2d_6"/>
     <g id="text_3">
      <!-- 40 -->
      <g style="fill: #262626" transform="translate(299.873353 489.097813) scale(0.1 -0.1)">
       <defs>
        <path id="ArialMT-34" d="M 2069 0 
L 2069 1097 
L 81 1097 
L 81 1613 
L 2172 4581 
L 2631 4581 
L 2631 1613 
L 3250 1613 
L 3250 1097 
L 2631 1097 
L 2631 0 
L 2069 0 
z
M 2069 1613 
L 2069 3678 
L 634 1613 
L 2069 1613 
z
" transform="scale(0.015625)"/>
       </defs>
       <use xlink:href="#ArialMT-34"/>
       <use xlink:href="#ArialMT-30" transform="translate(55.615234 0)"/>
      </g>
     </g>
    </g>
    <g id="xtick_4">
     <g id="line2d_7">
      <path d="M 418.98423 478.44 
L 418.98423 7.2 
" clip-path="url(#p07a7443146)" style="fill: none; stroke: #bbbbbb; stroke-opacity: 0.5; stroke-width: 0.7; stroke-linecap: round"/>
     </g>
     <g id="line2d_8"/>
     <g id="text_4">
      <!-- 60 -->
      <g style="fill: #262626" transform="translate(413.423292 489.097813) scale(0.1 -0.1)">
       <defs>
        <path id="ArialMT-36" d="M 3184 3459 
L 2625 3416 
Q 2550 3747 2413 3897 
Q 2184 4138 1850 4138 
Q 1581 4138 1378 3988 
Q 1113 3794 959 3422 
Q 806 3050 800 2363 
Q 1003 2672 1297 2822 
Q 1591 2972 1913 2972 
Q 2475 2972 2870 2558 
Q 3266 2144 3266 1488 
Q 3266 1056 3080 686 
Q 2894 316 2569 119 
Q 2244 -78 1831 -78 
Q 1128 -78 684 439 
Q 241 956 241 2144 
Q 241 3472 731 4075 
Q 1159 4600 1884 4600 
Q 2425 4600 2770 4297 
Q 3116 3994 3184 3459 
z
M 888 1484 
Q 888 1194 1011 928 
Q 1134 663 1356 523 
Q 1578 384 1822 384 
Q 2178 384 2434 671 
Q 2691 959 2691 1453 
Q 2691 1928 2437 2201 
Q 2184 2475 1800 2475 
Q 1419 2475 1153 2201 
Q 888 1928 888 1484 
z
" transform="scale(0.015625)"/>
       </defs>
       <use xlink:href="#ArialMT-36"/>
       <use xlink:href="#ArialMT-30" transform="translate(55.615234 0)"/>
      </g>
     </g>
    </g>
    <g id="xtick_5">
     <g id="line2d_9">
      <path d="M 532.53417 478.44 
L 532.53417 7.2 
" clip-path="url(#p07a7443146)" style="fill: none; stroke: #bbbbbb; stroke-opacity: 0.5; stroke-width: 0.7; stroke-linecap: round"/>
     </g>
     <g id="line2d_10"/>
     <g id="text_5">
      <!-- 80 -->
      <g style="fill: #262626" transform="translate(526.973232 489.097813) scale(0.1 -0.1)">
       <defs>
        <path id="ArialMT-38" d="M 1131 2484 
Q 781 2613 612 2850 
Q 444 3088 444 3419 
Q 444 3919 803 4259 
Q 1163 4600 1759 4600 
Q 2359 4600 2725 4251 
Q 3091 3903 3091 3403 
Q 3091 3084 2923 2848 
Q 2756 2613 2416 2484 
Q 2838 2347 3058 2040 
Q 3278 1734 3278 1309 
Q 3278 722 2862 322 
Q 2447 -78 1769 -78 
Q 1091 -78 675 323 
Q 259 725 259 1325 
Q 259 1772 486 2073 
Q 713 2375 1131 2484 
z
M 1019 3438 
Q 1019 3113 1228 2906 
Q 1438 2700 1772 2700 
Q 2097 2700 2305 2904 
Q 2513 3109 2513 3406 
Q 2513 3716 2298 3927 
Q 2084 4138 1766 4138 
Q 1444 4138 1231 3931 
Q 1019 3725 1019 3438 
z
M 838 1322 
Q 838 1081 952 856 
Q 1066 631 1291 507 
Q 1516 384 1775 384 
Q 2178 384 2440 643 
Q 2703 903 2703 1303 
Q 2703 1709 2433 1975 
Q 2163 2241 1756 2241 
Q 1359 2241 1098 1978 
Q 838 1716 838 1322 
z
" transform="scale(0.015625)"/>
       </defs>
       <use xlink:href="#ArialMT-38"/>
       <use xlink:href="#ArialMT-30" transform="translate(55.615234 0)"/>
      </g>
     </g>
    </g>
    <g id="xtick_6">
     <g id="line2d_11">
      <path d="M 646.084109 478.44 
L 646.084109 7.2 
" clip-path="url(#p07a7443146)" style="fill: none; stroke: #bbbbbb; stroke-opacity: 0.5; stroke-width: 0.7; stroke-linecap: round"/>
     </g>
     <g id="line2d_12"/>
     <g id="text_6">
      <!-- 100 -->
      <g style="fill: #262626" transform="translate(637.742703 489.097813) scale(0.1 -0.1)">
       <defs>
        <path id="ArialMT-31" d="M 2384 0 
L 1822 0 
L 1822 3584 
Q 1619 3391 1289 3197 
Q 959 3003 697 2906 
L 697 3450 
Q 1169 3672 1522 3987 
Q 1875 4303 2022 4600 
L 2384 4600 
L 2384 0 
z
" transform="scale(0.015625)"/>
       </defs>
       <use xlink:href="#ArialMT-31"/>
       <use xlink:href="#ArialMT-30" transform="translate(55.615234 0)"/>
       <use xlink:href="#ArialMT-30" transform="translate(111.230469 0)"/>
      </g>
     </g>
    </g>
    <g id="text_7">
     <!-- Tempo Trascorso (Minuti) -->
     <g style="fill: #262626" transform="translate(316.194531 504.548906) scale(0.13 -0.13)">
      <defs>
       <path id="ArialMT-54" d="M 1659 0 
L 1659 4041 
L 150 4041 
L 150 4581 
L 3781 4581 
L 3781 4041 
L 2266 4041 
L 2266 0 
L 1659 0 
z
" transform="scale(0.015625)"/>
       <path id="ArialMT-65" d="M 2694 1069 
L 3275 997 
Q 3138 488 2766 206 
Q 2394 -75 1816 -75 
Q 1088 -75 661 373 
Q 234 822 234 1631 
Q 234 2469 665 2931 
Q 1097 3394 1784 3394 
Q 2450 3394 2872 2941 
Q 3294 2488 3294 1666 
Q 3294 1616 3291 1516 
L 816 1516 
Q 847 969 1125 678 
Q 1403 388 1819 388 
Q 2128 388 2347 550 
Q 2566 713 2694 1069 
z
M 847 1978 
L 2700 1978 
Q 2663 2397 2488 2606 
Q 2219 2931 1791 2931 
Q 1403 2931 1139 2672 
Q 875 2413 847 1978 
z
" transform="scale(0.015625)"/>
       <path id="ArialMT-6d" d="M 422 0 
L 422 3319 
L 925 3319 
L 925 2853 
Q 1081 3097 1340 3245 
Q 1600 3394 1931 3394 
Q 2300 3394 2536 3241 
Q 2772 3088 2869 2813 
Q 3263 3394 3894 3394 
Q 4388 3394 4653 3120 
Q 4919 2847 4919 2278 
L 4919 0 
L 4359 0 
L 4359 2091 
Q 4359 2428 4304 2576 
Q 4250 2725 4106 2815 
Q 3963 2906 3769 2906 
Q 3419 2906 3187 2673 
Q 2956 2441 2956 1928 
L 2956 0 
L 2394 0 
L 2394 2156 
Q 2394 2531 2256 2718 
Q 2119 2906 1806 2906 
Q 1569 2906 1367 2781 
Q 1166 2656 1075 2415 
Q 984 2175 984 1722 
L 984 0 
L 422 0 
z
" transform="scale(0.015625)"/>
       <path id="ArialMT-70" d="M 422 -1272 
L 422 3319 
L 934 3319 
L 934 2888 
Q 1116 3141 1344 3267 
Q 1572 3394 1897 3394 
Q 2322 3394 2647 3175 
Q 2972 2956 3137 2557 
Q 3303 2159 3303 1684 
Q 3303 1175 3120 767 
Q 2938 359 2589 142 
Q 2241 -75 1856 -75 
Q 1575 -75 1351 44 
Q 1128 163 984 344 
L 984 -1272 
L 422 -1272 
z
M 931 1641 
Q 931 1000 1190 694 
Q 1450 388 1819 388 
Q 2194 388 2461 705 
Q 2728 1022 2728 1688 
Q 2728 2322 2467 2637 
Q 2206 2953 1844 2953 
Q 1484 2953 1207 2617 
Q 931 2281 931 1641 
z
" transform="scale(0.015625)"/>
       <path id="ArialMT-6f" d="M 213 1659 
Q 213 2581 725 3025 
Q 1153 3394 1769 3394 
Q 2453 3394 2887 2945 
Q 3322 2497 3322 1706 
Q 3322 1066 3130 698 
Q 2938 331 2570 128 
Q 2203 -75 1769 -75 
Q 1072 -75 642 372 
Q 213 819 213 1659 
z
M 791 1659 
Q 791 1022 1069 705 
Q 1347 388 1769 388 
Q 2188 388 2466 706 
Q 2744 1025 2744 1678 
Q 2744 2294 2464 2611 
Q 2184 2928 1769 2928 
Q 1347 2928 1069 2612 
Q 791 2297 791 1659 
z
" transform="scale(0.015625)"/>
       <path id="ArialMT-20" transform="scale(0.015625)"/>
       <path id="ArialMT-72" d="M 416 0 
L 416 3319 
L 922 3319 
L 922 2816 
Q 1116 3169 1280 3281 
Q 1444 3394 1641 3394 
Q 1925 3394 2219 3213 
L 2025 2691 
Q 1819 2813 1613 2813 
Q 1428 2813 1281 2702 
Q 1134 2591 1072 2394 
Q 978 2094 978 1738 
L 978 0 
L 416 0 
z
" transform="scale(0.015625)"/>
       <path id="ArialMT-61" d="M 2588 409 
Q 2275 144 1986 34 
Q 1697 -75 1366 -75 
Q 819 -75 525 192 
Q 231 459 231 875 
Q 231 1119 342 1320 
Q 453 1522 633 1644 
Q 813 1766 1038 1828 
Q 1203 1872 1538 1913 
Q 2219 1994 2541 2106 
Q 2544 2222 2544 2253 
Q 2544 2597 2384 2738 
Q 2169 2928 1744 2928 
Q 1347 2928 1158 2789 
Q 969 2650 878 2297 
L 328 2372 
Q 403 2725 575 2942 
Q 747 3159 1072 3276 
Q 1397 3394 1825 3394 
Q 2250 3394 2515 3294 
Q 2781 3194 2906 3042 
Q 3031 2891 3081 2659 
Q 3109 2516 3109 2141 
L 3109 1391 
Q 3109 606 3145 398 
Q 3181 191 3288 0 
L 2700 0 
Q 2613 175 2588 409 
z
M 2541 1666 
Q 2234 1541 1622 1453 
Q 1275 1403 1131 1340 
Q 988 1278 909 1158 
Q 831 1038 831 891 
Q 831 666 1001 516 
Q 1172 366 1500 366 
Q 1825 366 2078 508 
Q 2331 650 2450 897 
Q 2541 1088 2541 1459 
L 2541 1666 
z
" transform="scale(0.015625)"/>
       <path id="ArialMT-73" d="M 197 991 
L 753 1078 
Q 800 744 1014 566 
Q 1228 388 1613 388 
Q 2000 388 2187 545 
Q 2375 703 2375 916 
Q 2375 1106 2209 1216 
Q 2094 1291 1634 1406 
Q 1016 1563 777 1677 
Q 538 1791 414 1992 
Q 291 2194 291 2438 
Q 291 2659 392 2848 
Q 494 3038 669 3163 
Q 800 3259 1026 3326 
Q 1253 3394 1513 3394 
Q 1903 3394 2198 3281 
Q 2494 3169 2634 2976 
Q 2775 2784 2828 2463 
L 2278 2388 
Q 2241 2644 2061 2787 
Q 1881 2931 1553 2931 
Q 1166 2931 1000 2803 
Q 834 2675 834 2503 
Q 834 2394 903 2306 
Q 972 2216 1119 2156 
Q 1203 2125 1616 2013 
Q 2213 1853 2448 1751 
Q 2684 1650 2818 1456 
Q 2953 1263 2953 975 
Q 2953 694 2789 445 
Q 2625 197 2315 61 
Q 2006 -75 1616 -75 
Q 969 -75 630 194 
Q 291 463 197 991 
z
" transform="scale(0.015625)"/>
       <path id="ArialMT-63" d="M 2588 1216 
L 3141 1144 
Q 3050 572 2676 248 
Q 2303 -75 1759 -75 
Q 1078 -75 664 370 
Q 250 816 250 1647 
Q 250 2184 428 2587 
Q 606 2991 970 3192 
Q 1334 3394 1763 3394 
Q 2303 3394 2647 3120 
Q 2991 2847 3088 2344 
L 2541 2259 
Q 2463 2594 2264 2762 
Q 2066 2931 1784 2931 
Q 1359 2931 1093 2626 
Q 828 2322 828 1663 
Q 828 994 1084 691 
Q 1341 388 1753 388 
Q 2084 388 2306 591 
Q 2528 794 2588 1216 
z
" transform="scale(0.015625)"/>
       <path id="ArialMT-28" d="M 1497 -1347 
Q 1031 -759 709 28 
Q 388 816 388 1659 
Q 388 2403 628 3084 
Q 909 3875 1497 4659 
L 1900 4659 
Q 1522 4009 1400 3731 
Q 1209 3300 1100 2831 
Q 966 2247 966 1656 
Q 966 153 1900 -1347 
L 1497 -1347 
z
" transform="scale(0.015625)"/>
       <path id="ArialMT-4d" d="M 475 0 
L 475 4581 
L 1388 4581 
L 2472 1338 
Q 2622 884 2691 659 
Q 2769 909 2934 1394 
L 4031 4581 
L 4847 4581 
L 4847 0 
L 4263 0 
L 4263 3834 
L 2931 0 
L 2384 0 
L 1059 3900 
L 1059 0 
L 475 0 
z
" transform="scale(0.015625)"/>
       <path id="ArialMT-69" d="M 425 3934 
L 425 4581 
L 988 4581 
L 988 3934 
L 425 3934 
z
M 425 0 
L 425 3319 
L 988 3319 
L 988 0 
L 425 0 
z
" transform="scale(0.015625)"/>
       <path id="ArialMT-6e" d="M 422 0 
L 422 3319 
L 928 3319 
L 928 2847 
Q 1294 3394 1984 3394 
Q 2284 3394 2536 3286 
Q 2788 3178 2913 3003 
Q 3038 2828 3088 2588 
Q 3119 2431 3119 2041 
L 3119 0 
L 2556 0 
L 2556 2019 
Q 2556 2363 2490 2533 
Q 2425 2703 2258 2804 
Q 2091 2906 1866 2906 
Q 1506 2906 1245 2678 
Q 984 2450 984 1813 
L 984 0 
L 422 0 
z
" transform="scale(0.015625)"/>
       <path id="ArialMT-75" d="M 2597 0 
L 2597 488 
Q 2209 -75 1544 -75 
Q 1250 -75 995 37 
Q 741 150 617 320 
Q 494 491 444 738 
Q 409 903 409 1263 
L 409 3319 
L 972 3319 
L 972 1478 
Q 972 1038 1006 884 
Q 1059 663 1231 536 
Q 1403 409 1656 409 
Q 1909 409 2131 539 
Q 2353 669 2445 892 
Q 2538 1116 2538 1541 
L 2538 3319 
L 3100 3319 
L 3100 0 
L 2597 0 
z
" transform="scale(0.015625)"/>
       <path id="ArialMT-74" d="M 1650 503 
L 1731 6 
Q 1494 -44 1306 -44 
Q 1000 -44 831 53 
Q 663 150 594 308 
Q 525 466 525 972 
L 525 2881 
L 113 2881 
L 113 3319 
L 525 3319 
L 525 4141 
L 1084 4478 
L 1084 3319 
L 1650 3319 
L 1650 2881 
L 1084 2881 
L 1084 941 
Q 1084 700 1114 631 
Q 1144 563 1211 522 
Q 1278 481 1403 481 
Q 1497 481 1650 503 
z
" transform="scale(0.015625)"/>
       <path id="ArialMT-29" d="M 791 -1347 
L 388 -1347 
Q 1322 153 1322 1656 
Q 1322 2244 1188 2822 
Q 1081 3291 891 3722 
Q 769 4003 388 4659 
L 791 4659 
Q 1378 3875 1659 3084 
Q 1900 2403 1900 1659 
Q 1900 816 1576 28 
Q 1253 -759 791 -1347 
z
" transform="scale(0.015625)"/>
      </defs>
      <use xlink:href="#ArialMT-54"/>
      <use xlink:href="#ArialMT-65" transform="translate(49.958984 0)"/>
      <use xlink:href="#ArialMT-6d" transform="translate(105.574219 0)"/>
      <use xlink:href="#ArialMT-70" transform="translate(188.875 0)"/>
      <use xlink:href="#ArialMT-6f" transform="translate(244.490234 0)"/>
      <use xlink:href="#ArialMT-20" transform="translate(300.105469 0)"/>
      <use xlink:href="#ArialMT-54" transform="translate(326.138672 0)"/>
      <use xlink:href="#ArialMT-72" transform="translate(383.472656 0)"/>
      <use xlink:href="#ArialMT-61" transform="translate(416.773438 0)"/>
      <use xlink:href="#ArialMT-73" transform="translate(472.388672 0)"/>
      <use xlink:href="#ArialMT-63" transform="translate(522.388672 0)"/>
      <use xlink:href="#ArialMT-6f" transform="translate(572.388672 0)"/>
      <use xlink:href="#ArialMT-72" transform="translate(628.003906 0)"/>
      <use xlink:href="#ArialMT-73" transform="translate(661.304688 0)"/>
      <use xlink:href="#ArialMT-6f" transform="translate(711.304688 0)"/>
      <use xlink:href="#ArialMT-20" transform="translate(766.919922 0)"/>
      <use xlink:href="#ArialMT-28" transform="translate(794.703125 0)"/>
      <use xlink:href="#ArialMT-4d" transform="translate(828.003906 0)"/>
      <use xlink:href="#ArialMT-69" transform="translate(911.304688 0)"/>
      <use xlink:href="#ArialMT-6e" transform="translate(933.521484 0)"/>
      <use xlink:href="#ArialMT-75" transform="translate(989.136719 0)"/>
      <use xlink:href="#ArialMT-74" transform="translate(1044.751953 0)"/>
      <use xlink:href="#ArialMT-69" transform="translate(1072.535156 0)"/>
      <use xlink:href="#ArialMT-29" transform="translate(1094.751953 0)"/>
     </g>
    </g>
   </g>
   <g id="matplotlib.axis_2">
    <g id="ytick_1">
     <g id="line2d_13">
      <path d="M 54.7125 447.49239 
L 724.3125 447.49239 
" clip-path="url(#p07a7443146)" style="fill: none; stroke: #bbbbbb; stroke-opacity: 0.5; stroke-width: 0.7; stroke-linecap: round"/>
     </g>
     <g id="line2d_14"/>
     <g id="text_8">
      <!-- 37200 -->
      <g style="fill: #262626" transform="translate(23.407813 451.071297) scale(0.1 -0.1)">
       <defs>
        <path id="ArialMT-33" d="M 269 1209 
L 831 1284 
Q 928 806 1161 595 
Q 1394 384 1728 384 
Q 2125 384 2398 659 
Q 2672 934 2672 1341 
Q 2672 1728 2419 1979 
Q 2166 2231 1775 2231 
Q 1616 2231 1378 2169 
L 1441 2663 
Q 1497 2656 1531 2656 
Q 1891 2656 2178 2843 
Q 2466 3031 2466 3422 
Q 2466 3731 2256 3934 
Q 2047 4138 1716 4138 
Q 1388 4138 1169 3931 
Q 950 3725 888 3313 
L 325 3413 
Q 428 3978 793 4289 
Q 1159 4600 1703 4600 
Q 2078 4600 2393 4439 
Q 2709 4278 2876 4000 
Q 3044 3722 3044 3409 
Q 3044 3113 2884 2869 
Q 2725 2625 2413 2481 
Q 2819 2388 3044 2092 
Q 3269 1797 3269 1353 
Q 3269 753 2831 336 
Q 2394 -81 1725 -81 
Q 1122 -81 723 278 
Q 325 638 269 1209 
z
" transform="scale(0.015625)"/>
        <path id="ArialMT-37" d="M 303 3981 
L 303 4522 
L 3269 4522 
L 3269 4084 
Q 2831 3619 2401 2847 
Q 1972 2075 1738 1259 
Q 1569 684 1522 0 
L 944 0 
Q 953 541 1156 1306 
Q 1359 2072 1739 2783 
Q 2119 3494 2547 3981 
L 303 3981 
z
" transform="scale(0.015625)"/>
       </defs>
       <use xlink:href="#ArialMT-33"/>
       <use xlink:href="#ArialMT-37" transform="translate(55.615234 0)"/>
       <use xlink:href="#ArialMT-32" transform="translate(111.230469 0)"/>
       <use xlink:href="#ArialMT-30" transform="translate(166.845703 0)"/>
       <use xlink:href="#ArialMT-30" transform="translate(222.460938 0)"/>
      </g>
     </g>
    </g>
    <g id="ytick_2">
     <g id="line2d_15">
      <path d="M 54.7125 401.764004 
L 724.3125 401.764004 
" clip-path="url(#p07a7443146)" style="fill: none; stroke: #bbbbbb; stroke-opacity: 0.5; stroke-width: 0.7; stroke-linecap: round"/>
     </g>
     <g id="line2d_16"/>
     <g id="text_9">
      <!-- 37300 -->
      <g style="fill: #262626" transform="translate(23.407813 405.34291) scale(0.1 -0.1)">
       <use xlink:href="#ArialMT-33"/>
       <use xlink:href="#ArialMT-37" transform="translate(55.615234 0)"/>
       <use xlink:href="#ArialMT-33" transform="translate(111.230469 0)"/>
       <use xlink:href="#ArialMT-30" transform="translate(166.845703 0)"/>
       <use xlink:href="#ArialMT-30" transform="translate(222.460938 0)"/>
      </g>
     </g>
    </g>
    <g id="ytick_3">
     <g id="line2d_17">
      <path d="M 54.7125 356.035618 
L 724.3125 356.035618 
" clip-path="url(#p07a7443146)" style="fill: none; stroke: #bbbbbb; stroke-opacity: 0.5; stroke-width: 0.7; stroke-linecap: round"/>
     </g>
     <g id="line2d_18"/>
     <g id="text_10">
      <!-- 37400 -->
      <g style="fill: #262626" transform="translate(23.407813 359.614524) scale(0.1 -0.1)">
       <use xlink:href="#ArialMT-33"/>
       <use xlink:href="#ArialMT-37" transform="translate(55.615234 0)"/>
       <use xlink:href="#ArialMT-34" transform="translate(111.230469 0)"/>
       <use xlink:href="#ArialMT-30" transform="translate(166.845703 0)"/>
       <use xlink:href="#ArialMT-30" transform="translate(222.460938 0)"/>
      </g>
     </g>
    </g>
    <g id="ytick_4">
     <g id="line2d_19">
      <path d="M 54.7125 310.307231 
L 724.3125 310.307231 
" clip-path="url(#p07a7443146)" style="fill: none; stroke: #bbbbbb; stroke-opacity: 0.5; stroke-width: 0.7; stroke-linecap: round"/>
     </g>
     <g id="line2d_20"/>
     <g id="text_11">
      <!-- 37500 -->
      <g style="fill: #262626" transform="translate(23.407813 313.886138) scale(0.1 -0.1)">
       <defs>
        <path id="ArialMT-35" d="M 266 1200 
L 856 1250 
Q 922 819 1161 601 
Q 1400 384 1738 384 
Q 2144 384 2425 690 
Q 2706 997 2706 1503 
Q 2706 1984 2436 2262 
Q 2166 2541 1728 2541 
Q 1456 2541 1237 2417 
Q 1019 2294 894 2097 
L 366 2166 
L 809 4519 
L 3088 4519 
L 3088 3981 
L 1259 3981 
L 1013 2750 
Q 1425 3038 1878 3038 
Q 2478 3038 2890 2622 
Q 3303 2206 3303 1553 
Q 3303 931 2941 478 
Q 2500 -78 1738 -78 
Q 1113 -78 717 272 
Q 322 622 266 1200 
z
" transform="scale(0.015625)"/>
       </defs>
       <use xlink:href="#ArialMT-33"/>
       <use xlink:href="#ArialMT-37" transform="translate(55.615234 0)"/>
       <use xlink:href="#ArialMT-35" transform="translate(111.230469 0)"/>
       <use xlink:href="#ArialMT-30" transform="translate(166.845703 0)"/>
       <use xlink:href="#ArialMT-30" transform="translate(222.460938 0)"/>
      </g>
     </g>
    </g>
    <g id="ytick_5">
     <g id="line2d_21">
      <path d="M 54.7125 264.578845 
L 724.3125 264.578845 
" clip-path="url(#p07a7443146)" style="fill: none; stroke: #bbbbbb; stroke-opacity: 0.5; stroke-width: 0.7; stroke-linecap: round"/>
     </g>
     <g id="line2d_22"/>
     <g id="text_12">
      <!-- 37600 -->
      <g style="fill: #262626" transform="translate(23.407813 268.157751) scale(0.1 -0.1)">
       <use xlink:href="#ArialMT-33"/>
       <use xlink:href="#ArialMT-37" transform="translate(55.615234 0)"/>
       <use xlink:href="#ArialMT-36" transform="translate(111.230469 0)"/>
       <use xlink:href="#ArialMT-30" transform="translate(166.845703 0)"/>
       <use xlink:href="#ArialMT-30" transform="translate(222.460938 0)"/>
      </g>
     </g>
    </g>
    <g id="ytick_6">
     <g id="line2d_23">
      <path d="M 54.7125 218.850459 
L 724.3125 218.850459 
" clip-path="url(#p07a7443146)" style="fill: none; stroke: #bbbbbb; stroke-opacity: 0.5; stroke-width: 0.7; stroke-linecap: round"/>
     </g>
     <g id="line2d_24"/>
     <g id="text_13">
      <!-- 37700 -->
      <g style="fill: #262626" transform="translate(23.407813 222.429365) scale(0.1 -0.1)">
       <use xlink:href="#ArialMT-33"/>
       <use xlink:href="#ArialMT-37" transform="translate(55.615234 0)"/>
       <use xlink:href="#ArialMT-37" transform="translate(111.230469 0)"/>
       <use xlink:href="#ArialMT-30" transform="translate(166.845703 0)"/>
       <use xlink:href="#ArialMT-30" transform="translate(222.460938 0)"/>
      </g>
     </g>
    </g>
    <g id="ytick_7">
     <g id="line2d_25">
      <path d="M 54.7125 173.122072 
L 724.3125 173.122072 
" clip-path="url(#p07a7443146)" style="fill: none; stroke: #bbbbbb; stroke-opacity: 0.5; stroke-width: 0.7; stroke-linecap: round"/>
     </g>
     <g id="line2d_26"/>
     <g id="text_14">
      <!-- 37800 -->
      <g style="fill: #262626" transform="translate(23.407813 176.700979) scale(0.1 -0.1)">
       <use xlink:href="#ArialMT-33"/>
       <use xlink:href="#ArialMT-37" transform="translate(55.615234 0)"/>
       <use xlink:href="#ArialMT-38" transform="translate(111.230469 0)"/>
       <use xlink:href="#ArialMT-30" transform="translate(166.845703 0)"/>
       <use xlink:href="#ArialMT-30" transform="translate(222.460938 0)"/>
      </g>
     </g>
    </g>
    <g id="ytick_8">
     <g id="line2d_27">
      <path d="M 54.7125 127.393686 
L 724.3125 127.393686 
" clip-path="url(#p07a7443146)" style="fill: none; stroke: #bbbbbb; stroke-opacity: 0.5; stroke-width: 0.7; stroke-linecap: round"/>
     </g>
     <g id="line2d_28"/>
     <g id="text_15">
      <!-- 37900 -->
      <g style="fill: #262626" transform="translate(23.407813 130.972592) scale(0.1 -0.1)">
       <defs>
        <path id="ArialMT-39" d="M 350 1059 
L 891 1109 
Q 959 728 1153 556 
Q 1347 384 1650 384 
Q 1909 384 2104 503 
Q 2300 622 2425 820 
Q 2550 1019 2634 1356 
Q 2719 1694 2719 2044 
Q 2719 2081 2716 2156 
Q 2547 1888 2255 1720 
Q 1963 1553 1622 1553 
Q 1053 1553 659 1965 
Q 266 2378 266 3053 
Q 266 3750 677 4175 
Q 1088 4600 1706 4600 
Q 2153 4600 2523 4359 
Q 2894 4119 3086 3673 
Q 3278 3228 3278 2384 
Q 3278 1506 3087 986 
Q 2897 466 2520 194 
Q 2144 -78 1638 -78 
Q 1100 -78 759 220 
Q 419 519 350 1059 
z
M 2653 3081 
Q 2653 3566 2395 3850 
Q 2138 4134 1775 4134 
Q 1400 4134 1122 3828 
Q 844 3522 844 3034 
Q 844 2597 1108 2323 
Q 1372 2050 1759 2050 
Q 2150 2050 2401 2323 
Q 2653 2597 2653 3081 
z
" transform="scale(0.015625)"/>
       </defs>
       <use xlink:href="#ArialMT-33"/>
       <use xlink:href="#ArialMT-37" transform="translate(55.615234 0)"/>
       <use xlink:href="#ArialMT-39" transform="translate(111.230469 0)"/>
       <use xlink:href="#ArialMT-30" transform="translate(166.845703 0)"/>
       <use xlink:href="#ArialMT-30" transform="translate(222.460938 0)"/>
      </g>
     </g>
    </g>
    <g id="ytick_9">
     <g id="line2d_29">
      <path d="M 54.7125 81.6653 
L 724.3125 81.6653 
" clip-path="url(#p07a7443146)" style="fill: none; stroke: #bbbbbb; stroke-opacity: 0.5; stroke-width: 0.7; stroke-linecap: round"/>
     </g>
     <g id="line2d_30"/>
     <g id="text_16">
      <!-- 38000 -->
      <g style="fill: #262626" transform="translate(23.407813 85.244206) scale(0.1 -0.1)">
       <use xlink:href="#ArialMT-33"/>
       <use xlink:href="#ArialMT-38" transform="translate(55.615234 0)"/>
       <use xlink:href="#ArialMT-30" transform="translate(111.230469 0)"/>
       <use xlink:href="#ArialMT-30" transform="translate(166.845703 0)"/>
       <use xlink:href="#ArialMT-30" transform="translate(222.460938 0)"/>
      </g>
     </g>
    </g>
    <g id="ytick_10">
     <g id="line2d_31">
      <path d="M 54.7125 35.936913 
L 724.3125 35.936913 
" clip-path="url(#p07a7443146)" style="fill: none; stroke: #bbbbbb; stroke-opacity: 0.5; stroke-width: 0.7; stroke-linecap: round"/>
     </g>
     <g id="line2d_32"/>
     <g id="text_17">
      <!-- 38100 -->
      <g style="fill: #262626" transform="translate(23.407813 39.51582) scale(0.1 -0.1)">
       <use xlink:href="#ArialMT-33"/>
       <use xlink:href="#ArialMT-38" transform="translate(55.615234 0)"/>
       <use xlink:href="#ArialMT-31" transform="translate(111.230469 0)"/>
       <use xlink:href="#ArialMT-30" transform="translate(166.845703 0)"/>
       <use xlink:href="#ArialMT-30" transform="translate(222.460938 0)"/>
      </g>
     </g>
    </g>
    <g id="text_18">
     <!-- Throughput Medio Massimo Osservato (ops/sec) -->
     <g style="fill: #262626" transform="translate(16.671719 383.337812) rotate(-90) scale(0.13 -0.13)">
      <defs>
       <path id="ArialMT-68" d="M 422 0 
L 422 4581 
L 984 4581 
L 984 2938 
Q 1378 3394 1978 3394 
Q 2347 3394 2619 3248 
Q 2891 3103 3008 2847 
Q 3125 2591 3125 2103 
L 3125 0 
L 2563 0 
L 2563 2103 
Q 2563 2525 2380 2717 
Q 2197 2909 1863 2909 
Q 1613 2909 1392 2779 
Q 1172 2650 1078 2428 
Q 984 2206 984 1816 
L 984 0 
L 422 0 
z
" transform="scale(0.015625)"/>
       <path id="ArialMT-67" d="M 319 -275 
L 866 -356 
Q 900 -609 1056 -725 
Q 1266 -881 1628 -881 
Q 2019 -881 2231 -725 
Q 2444 -569 2519 -288 
Q 2563 -116 2559 434 
Q 2191 0 1641 0 
Q 956 0 581 494 
Q 206 988 206 1678 
Q 206 2153 378 2554 
Q 550 2956 876 3175 
Q 1203 3394 1644 3394 
Q 2231 3394 2613 2919 
L 2613 3319 
L 3131 3319 
L 3131 450 
Q 3131 -325 2973 -648 
Q 2816 -972 2473 -1159 
Q 2131 -1347 1631 -1347 
Q 1038 -1347 672 -1080 
Q 306 -813 319 -275 
z
M 784 1719 
Q 784 1066 1043 766 
Q 1303 466 1694 466 
Q 2081 466 2343 764 
Q 2606 1063 2606 1700 
Q 2606 2309 2336 2618 
Q 2066 2928 1684 2928 
Q 1309 2928 1046 2623 
Q 784 2319 784 1719 
z
" transform="scale(0.015625)"/>
       <path id="ArialMT-64" d="M 2575 0 
L 2575 419 
Q 2259 -75 1647 -75 
Q 1250 -75 917 144 
Q 584 363 401 755 
Q 219 1147 219 1656 
Q 219 2153 384 2558 
Q 550 2963 881 3178 
Q 1213 3394 1622 3394 
Q 1922 3394 2156 3267 
Q 2391 3141 2538 2938 
L 2538 4581 
L 3097 4581 
L 3097 0 
L 2575 0 
z
M 797 1656 
Q 797 1019 1065 703 
Q 1334 388 1700 388 
Q 2069 388 2326 689 
Q 2584 991 2584 1609 
Q 2584 2291 2321 2609 
Q 2059 2928 1675 2928 
Q 1300 2928 1048 2622 
Q 797 2316 797 1656 
z
" transform="scale(0.015625)"/>
       <path id="ArialMT-4f" d="M 309 2231 
Q 309 3372 921 4017 
Q 1534 4663 2503 4663 
Q 3138 4663 3647 4359 
Q 4156 4056 4423 3514 
Q 4691 2972 4691 2284 
Q 4691 1588 4409 1038 
Q 4128 488 3612 205 
Q 3097 -78 2500 -78 
Q 1853 -78 1343 234 
Q 834 547 571 1087 
Q 309 1628 309 2231 
z
M 934 2222 
Q 934 1394 1379 917 
Q 1825 441 2497 441 
Q 3181 441 3623 922 
Q 4066 1403 4066 2288 
Q 4066 2847 3877 3264 
Q 3688 3681 3323 3911 
Q 2959 4141 2506 4141 
Q 1863 4141 1398 3698 
Q 934 3256 934 2222 
z
" transform="scale(0.015625)"/>
       <path id="ArialMT-76" d="M 1344 0 
L 81 3319 
L 675 3319 
L 1388 1331 
Q 1503 1009 1600 663 
Q 1675 925 1809 1294 
L 2547 3319 
L 3125 3319 
L 1869 0 
L 1344 0 
z
" transform="scale(0.015625)"/>
       <path id="ArialMT-2f" d="M 0 -78 
L 1328 4659 
L 1778 4659 
L 453 -78 
L 0 -78 
z
" transform="scale(0.015625)"/>
      </defs>
      <use xlink:href="#ArialMT-54"/>
      <use xlink:href="#ArialMT-68" transform="translate(61.083984 0)"/>
      <use xlink:href="#ArialMT-72" transform="translate(116.699219 0)"/>
      <use xlink:href="#ArialMT-6f" transform="translate(150 0)"/>
      <use xlink:href="#ArialMT-75" transform="translate(205.615234 0)"/>
      <use xlink:href="#ArialMT-67" transform="translate(261.230469 0)"/>
      <use xlink:href="#ArialMT-68" transform="translate(316.845703 0)"/>
      <use xlink:href="#ArialMT-70" transform="translate(372.460938 0)"/>
      <use xlink:href="#ArialMT-75" transform="translate(428.076172 0)"/>
      <use xlink:href="#ArialMT-74" transform="translate(483.691406 0)"/>
      <use xlink:href="#ArialMT-20" transform="translate(511.474609 0)"/>
      <use xlink:href="#ArialMT-4d" transform="translate(539.257812 0)"/>
      <use xlink:href="#ArialMT-65" transform="translate(622.558594 0)"/>
      <use xlink:href="#ArialMT-64" transform="translate(678.173828 0)"/>
      <use xlink:href="#ArialMT-69" transform="translate(733.789062 0)"/>
      <use xlink:href="#ArialMT-6f" transform="translate(756.005859 0)"/>
      <use xlink:href="#ArialMT-20" transform="translate(811.621094 0)"/>
      <use xlink:href="#ArialMT-4d" transform="translate(839.404297 0)"/>
      <use xlink:href="#ArialMT-61" transform="translate(922.705078 0)"/>
      <use xlink:href="#ArialMT-73" transform="translate(978.320312 0)"/>
      <use xlink:href="#ArialMT-73" transform="translate(1028.320312 0)"/>
      <use xlink:href="#ArialMT-69" transform="translate(1078.320312 0)"/>
      <use xlink:href="#ArialMT-6d" transform="translate(1100.537109 0)"/>
      <use xlink:href="#ArialMT-6f" transform="translate(1183.837891 0)"/>
      <use xlink:href="#ArialMT-20" transform="translate(1239.453125 0)"/>
      <use xlink:href="#ArialMT-4f" transform="translate(1267.236328 0)"/>
      <use xlink:href="#ArialMT-73" transform="translate(1345.019531 0)"/>
      <use xlink:href="#ArialMT-73" transform="translate(1395.019531 0)"/>
      <use xlink:href="#ArialMT-65" transform="translate(1445.019531 0)"/>
      <use xlink:href="#ArialMT-72" transform="translate(1500.634766 0)"/>
      <use xlink:href="#ArialMT-76" transform="translate(1533.935547 0)"/>
      <use xlink:href="#ArialMT-61" transform="translate(1583.935547 0)"/>
      <use xlink:href="#ArialMT-74" transform="translate(1639.550781 0)"/>
      <use xlink:href="#ArialMT-6f" transform="translate(1667.333984 0)"/>
      <use xlink:href="#ArialMT-20" transform="translate(1722.949219 0)"/>
      <use xlink:href="#ArialMT-28" transform="translate(1750.732422 0)"/>
      <use xlink:href="#ArialMT-6f" transform="translate(1784.033203 0)"/>
      <use xlink:href="#ArialMT-70" transform="translate(1839.648438 0)"/>
      <use xlink:href="#ArialMT-73" transform="translate(1895.263672 0)"/>
      <use xlink:href="#ArialMT-2f" transform="translate(1945.263672 0)"/>
      <use xlink:href="#ArialMT-73" transform="translate(1973.046875 0)"/>
      <use xlink:href="#ArialMT-65" transform="translate(2023.046875 0)"/>
      <use xlink:href="#ArialMT-63" transform="translate(2078.662109 0)"/>
      <use xlink:href="#ArialMT-29" transform="translate(2128.662109 0)"/>
     </g>
    </g>
   </g>
   <g id="patch_3">
    <path d="M 54.7125 90.993519 
L 724.3125 90.993519 
L 724.3125 28.62 
L 54.7125 28.62 
z
" clip-path="url(#p07a7443146)" style="opacity: 0.15; stroke: #000000; stroke-linejoin: miter"/>
   </g>
   <g id="line2d_33">
    <path d="M 85.191914 294.333476 
L 92.035987 278.093246 
L 98.91379 278.093246 
L 105.753442 270.553281 
L 112.586528 256.327937 
L 119.357984 90.234405 
L 126.134362 90.234405 
L 132.928587 90.234405 
L 139.77751 90.234405 
L 146.647406 90.234405 
L 153.479403 90.234405 
L 160.339487 90.234405 
L 167.166714 90.234405 
L 174.093878 90.234405 
L 180.917541 90.234405 
L 187.680398 66.706714 
L 194.58482 66.706714 
L 201.539051 66.706714 
L 208.336419 66.706714 
L 215.16791 66.706714 
L 222.003962 66.706714 
L 228.788279 66.706714 
L 235.589002 66.706714 
L 242.461824 66.706714 
L 249.261524 66.706714 
L 256.062973 66.706714 
L 262.952595 66.706714 
L 269.779304 66.706714 
L 276.573383 66.706714 
L 283.390591 66.706714 
L 290.206834 66.706714 
L 297.017705 66.706714 
L 303.844546 66.706714 
L 310.647166 66.706714 
L 317.541392 66.706714 
L 324.359418 66.706714 
L 331.204828 66.706714 
L 338.09298 66.706714 
L 344.918455 66.706714 
L 351.786755 66.706714 
L 358.603687 66.706714 
L 365.390953 66.706714 
L 372.215966 66.706714 
L 379.009072 66.706714 
L 385.828061 66.706714 
L 392.629181 66.706714 
L 399.460465 66.706714 
L 406.276545 66.706714 
L 413.121861 66.706714 
L 419.939897 66.706714 
L 426.721652 66.706714 
L 433.586982 66.706714 
L 440.50576 66.706714 
L 447.317903 66.706714 
L 454.128539 66.706714 
L 460.916084 66.706714 
L 467.720903 66.706714 
L 474.515515 66.706714 
L 481.342639 66.706714 
L 488.156642 66.706714 
L 495.030154 66.706714 
L 501.859352 66.706714 
L 508.717556 66.706714 
L 515.536623 66.706714 
L 522.341018 66.706714 
L 529.159054 66.706714 
L 536.025296 66.706714 
L 542.883822 66.706714 
L 549.799802 66.706714 
L 556.608658 66.706714 
L 563.468743 66.706714 
L 570.32802 66.706714 
L 577.163464 66.706714 
L 583.99081 66.706714 
L 590.780039 66.706714 
L 597.625236 66.706714 
L 604.433565 66.706714 
L 611.265239 66.706714 
L 618.067303 66.706714 
L 624.93637 66.706714 
L 631.818875 66.706714 
L 638.649407 66.706714 
L 645.503156 66.706714 
L 652.373864 66.706714 
L 659.230289 66.706714 
L 666.076425 66.706714 
L 672.93625 66.706714 
L 679.741948 66.706714 
L 686.65748 66.706714 
L 693.488084 66.706714 
" clip-path="url(#p07a7443146)" style="fill: none; stroke: #0077bb; stroke-width: 2.5; stroke-linecap: round"/>
   </g>
   <g id="line2d_34">
    <path d="M 85.187613 313.947457 
L 92.009864 199.886515 
L 98.868284 199.886515 
L 105.695184 199.886515 
L 112.556736 199.886515 
L 119.387725 199.886515 
L 126.214638 199.886515 
L 133.05754 199.886515 
L 139.894298 199.886515 
L 146.724623 199.886515 
L 153.681686 199.886515 
L 160.498822 190.083694 
L 167.256629 51.433815 
L 174.037942 51.433815 
L 180.83859 51.433815 
L 187.630821 51.433815 
L 194.426084 51.433815 
L 201.200786 51.433815 
L 208.006465 51.433815 
L 214.797717 51.433815 
L 221.594237 51.433815 
L 228.392749 51.433815 
L 235.232574 51.433815 
L 242.049709 51.433815 
L 248.871961 51.433815 
L 255.658779 51.433815 
L 262.497684 51.433815 
L 269.30249 51.433815 
L 276.109755 51.433815 
L 282.905552 51.433815 
L 289.7055 51.433815 
L 296.517034 51.433815 
L 303.327185 51.433815 
L 310.152801 51.433815 
L 316.972626 51.433815 
L 323.7504 51.433815 
L 330.617066 51.433815 
L 337.476172 51.433815 
L 344.272692 51.433815 
L 351.04731 51.433815 
L 357.84925 51.433815 
L 364.6389 51.433815 
L 371.45696 51.433815 
L 378.263209 51.433815 
L 385.042084 51.433815 
L 391.823397 51.433815 
L 398.636408 51.433815 
L 405.441215 51.433815 
L 412.266346 51.433815 
L 419.099321 51.433815 
L 425.895841 51.433815 
L 432.697781 51.433815 
L 439.487431 51.433815 
L 446.305492 51.433815 
L 453.083265 51.433815 
L 459.889514 51.433815 
L 466.668389 51.433815 
L 473.449702 51.433815 
L 480.262713 51.433815 
L 487.067519 51.433815 
L 493.892651 51.433815 
L 500.725626 51.433815 
L 507.549258 51.433815 
L 514.353031 51.433815 
L 521.143379 51.433815 
L 527.940852 51.433815 
L 534.761132 51.433815 
L 541.592854 51.433815 
L 548.389958 51.433815 
L 555.215536 51.433815 
L 562.028547 51.433815 
L 568.807422 51.433815 
L 575.592097 51.433815 
L 582.479463 51.433815 
L 589.386788 51.433815 
L 596.234068 51.433815 
L 603.049307 51.433815 
L 609.850515 51.433815 
L 616.658948 51.433815 
L 623.4691 51.433815 
L 630.299104 51.433815 
L 637.102753 51.433815 
L 643.907559 51.433815 
L 650.697907 51.433815 
L 657.476782 51.433815 
L 664.364149 51.433815 
L 671.271474 51.433815 
L 678.077675 51.433815 
L 684.917499 51.433815 
L 691.721148 51.433815 
" clip-path="url(#p07a7443146)" style="fill: none; stroke: #ee7733; stroke-width: 2.5; stroke-linecap: round"/>
   </g>
   <g id="line2d_35">
    <path d="M 85.184375 292.498603 
L 91.983929 154.030033 
L 98.823307 154.030033 
L 105.654862 154.030033 
L 112.486647 154.030033 
L 119.412565 154.030033 
L 126.292617 154.030033 
L 133.15037 154.030033 
L 140.002953 154.030033 
L 146.830429 154.030033 
L 153.655638 154.030033 
L 160.455192 154.030033 
L 167.311888 154.030033 
L 174.197787 154.030033 
L 181.070989 154.030033 
L 187.870543 154.030033 
L 194.692363 154.030033 
L 201.536077 154.030033 
L 208.391399 154.030033 
L 215.194082 154.030033 
L 222.025636 154.030033 
L 228.833432 154.030033 
L 235.632986 154.030033 
L 242.464541 154.030033 
L 249.331586 154.030033 
L 256.172391 154.030033 
L 263.180978 154.030033 
L 270.045188 154.030033 
L 276.921412 154.030033 
L 283.748259 154.030033 
L 290.547813 154.030033 
L 297.411667 154.030033 
L 304.21435 154.030033 
L 311.013904 154.030033 
L 317.927792 154.030033 
L 324.7694 154.030033 
L 331.615445 154.030033 
L 338.479655 154.030033 
L 345.305594 154.030033 
L 352.314181 154.030033 
L 359.121718 154.030033 
L 365.948687 154.030033 
L 372.75137 154.030033 
L 379.554053 154.030033 
L 386.353607 154.030033 
L 393.16422 154.030033 
L 400.056058 154.030033 
L 406.903382 154.030033 
L 413.706065 154.030033 
L 420.538614 154.030033 
L 427.349227 154.030033 
L 434.159839 154.030033 
L 440.983105 154.030033 
L 447.81466 154.030033 
L 454.598496 114.914732 
L 461.382333 114.914732 
L 468.240086 114.914732 
L 475.067056 114.914732 
L 481.877315 114.914732 
L 488.687928 114.914732 
L 495.533973 114.914732 
L 502.339546 114.914732 
L 509.123383 114.914732 
L 515.955545 114.914732 
L 522.791161 114.914732 
L 529.618131 114.914732 
L 536.401967 114.914732 
L 543.21258 114.914732 
L 550.066922 114.914732 
L 556.876474 114.914732 
L 563.733209 114.914732 
L 570.603282 114.914732 
L 577.430252 114.914732 
L 584.271057 114.914732 
L 591.081669 114.914732 
L 597.865506 114.914732 
L 604.74433 114.914732 
L 611.528167 114.914732 
L 618.407598 114.914732 
L 625.265351 114.914732 
L 632.092994 114.914732 
L 638.950747 114.914732 
L 645.758543 114.914732 
L 652.574246 114.914732 
L 659.376929 114.914732 
L 666.202867 114.914732 
L 673.011317 114.914732 
L 680.019904 114.914732 
L 686.803741 114.914732 
L 693.625561 114.914732 
" clip-path="url(#p07a7443146)" style="fill: none; stroke: #009988; stroke-width: 2.5; stroke-linecap: round"/>
   </g>
   <g id="line2d_36">
    <path d="M 85.155124 222.234945 
L 91.978618 222.234945 
L 98.85436 222.234945 
L 105.707255 222.234945 
L 112.55722 222.234945 
L 119.388411 222.234945 
L 126.247622 222.234945 
L 133.095401 222.234945 
L 139.88881 150.079665 
L 146.685531 150.079665 
L 153.473913 130.96181 
L 160.270743 130.96181 
L 167.080728 130.96181 
L 173.866716 117.092404 
L 180.663359 117.092404 
L 187.484073 117.092404 
L 194.296786 117.092404 
L 201.092572 117.092404 
L 207.923477 117.092404 
L 214.733428 117.092404 
L 221.526837 117.092404 
L 228.358028 117.092404 
L 235.229202 117.092404 
L 242.079779 117.092404 
L 248.951897 117.092404 
L 255.808897 117.092404 
L 262.645742 117.092404 
L 269.493562 117.092404 
L 276.364165 117.092404 
L 283.196072 117.092404 
L 290.017843 117.092404 
L 296.850233 117.092404 
L 303.721407 117.092404 
L 310.570133 117.092404 
L 317.408601 117.092404 
L 324.245447 117.092404 
L 331.116268 117.092404 
L 337.973269 117.092404 
L 344.811519 117.092404 
L 351.58721 104.798573 
L 358.385502 104.798573 
L 365.156475 92.052071 
L 371.947681 92.052071 
L 378.802336 92.052071 
L 385.60403 92.052071 
L 392.390345 92.052071 
L 399.185391 92.052071 
L 405.961082 92.052071 
L 412.760649 92.052071 
L 419.620411 92.052071 
L 426.460273 92.052071 
L 433.340547 92.052071 
L 440.285785 92.052071 
L 447.14397 92.052071 
L 454.035394 92.052071 
L 460.846902 92.052071 
L 467.694857 92.052071 
L 474.525478 92.052071 
L 481.35501 92.052071 
L 488.213247 92.052071 
L 495.052549 92.052071 
L 501.908027 92.052071 
L 508.788301 92.052071 
L 515.644135 92.052071 
L 522.459995 92.052071 
L 529.268859 92.052071 
L 536.058583 92.052071 
L 542.844988 92.052071 
L 549.653956 92.052071 
L 556.453115 92.052071 
L 563.281538 92.052071 
L 570.090402 92.052071 
L 576.916628 92.052071 
L 583.712645 92.052071 
L 590.515713 92.052071 
L 597.374995 92.052071 
L 604.255624 92.052071 
L 611.084892 92.052071 
L 617.910563 92.052071 
L 624.784255 92.052071 
L 631.654985 92.052071 
L 638.518616 92.052071 
L 645.418162 92.052071 
L 652.298791 92.052071 
L 659.130698 92.052071 
L 666.001301 92.052071 
L 672.841645 92.052071 
L 679.715829 92.052071 
L 686.567837 92.052071 
L 693.438567 92.052071 
" clip-path="url(#p07a7443146)" style="fill: none; stroke: #cc3311; stroke-width: 2.5; stroke-linecap: round"/>
   </g>
   <g id="line2d_37">
    <path d="M 85.148864 186.614683 
L 92.002995 186.614683 
L 98.820401 144.570468 
L 105.667709 144.570468 
L 112.510434 144.570468 
L 119.322804 144.570468 
L 126.164287 144.570468 
L 133.059192 144.570468 
L 139.867297 144.570468 
L 146.711586 144.570468 
L 153.591802 144.570468 
L 160.453711 144.570468 
L 167.332213 144.570468 
L 174.124329 140.915545 
L 180.916457 140.915545 
L 187.757822 140.915545 
L 194.561736 140.915545 
L 201.404982 140.915545 
L 208.189809 117.500956 
L 215.003281 117.500956 
L 221.807958 117.500956 
L 228.673597 117.500956 
L 235.518273 117.500956 
L 242.361169 117.500956 
L 249.222264 117.500956 
L 256.034823 117.500956 
L 262.888727 117.500956 
L 269.744258 117.500956 
L 276.524871 100.931822 
L 283.377269 100.931822 
L 290.217111 100.931822 
L 297.070821 100.931822 
L 303.930039 100.931822 
L 310.810476 100.931822 
L 317.628312 100.931822 
L 324.514047 100.931822 
L 331.376856 100.931822 
L 338.15811 82.69736 
L 345.027521 82.69736 
L 351.824391 82.69736 
L 358.68481 82.69736 
L 365.559201 82.69736 
L 372.395784 82.69736 
L 379.27238 82.69736 
L 386.0955 82.69736 
L 392.942452 82.69736 
L 399.81649 82.69736 
L 406.654295 82.69736 
L 413.50163 82.69736 
L 420.390738 82.69736 
L 427.238735 82.69736 
L 434.064881 82.69736 
L 440.917661 82.69736 
L 447.76423 82.69736 
L 454.647702 82.69736 
L 461.430767 82.69736 
L 468.235675 82.69736 
L 475.062682 82.69736 
L 481.892267 82.69736 
L 488.69106 82.69736 
L 495.53761 82.69736 
L 502.402244 82.69736 
L 509.215066 82.69736 
L 516.029341 82.69736 
L 522.961336 82.69736 
L 529.793181 82.69736 
L 536.638634 82.69736 
L 543.502088 82.69736 
L 550.3078 82.69736 
L 557.184589 82.69736 
L 563.975663 82.69736 
L 570.787787 82.69736 
L 577.612225 82.69736 
L 584.452103 82.69736 
L 591.240229 82.69736 
L 598.097361 82.69736 
L 604.950918 82.69736 
L 611.799034 82.69736 
L 618.59301 82.69736 
L 625.430991 82.69736 
L 632.233526 82.69736 
L 639.065616 82.69736 
L 645.938216 82.69736 
L 652.779308 82.69736 
L 659.598667 82.69736 
L 666.462272 82.69736 
L 673.37033 82.69736 
L 680.231715 82.69736 
L 687.040275 82.69736 
L 693.876136 82.69736 
" clip-path="url(#p07a7443146)" style="fill: none; stroke: #aa3377; stroke-width: 2.5; stroke-linecap: round"/>
   </g>
   <g id="line2d_38">
    <path d="M 85.273787 457.02 
L 92.129505 282.63537 
L 98.991288 282.63537 
L 105.807059 175.75575 
L 112.642024 175.75575 
L 119.426544 89.83962 
L 126.242315 89.83962 
L 133.081528 89.83962 
L 139.993859 89.83962 
L 146.933236 89.83962 
L 153.845567 89.83962 
L 160.707349 89.83962 
L 167.523121 89.83962 
L 174.323743 89.83962 
L 181.150712 89.83962 
L 187.966483 89.83962 
L 194.767105 89.83962 
L 201.595324 89.83962 
L 208.395945 89.83962 
L 215.204357 89.83962 
L 222.033208 89.83962 
L 228.885033 89.83962 
L 235.746088 89.83962 
L 242.530607 89.83962 
L 249.336741 89.83962 
L 256.162479 89.83962 
L 262.986082 89.83962 
L 269.794494 89.83962 
L 276.618098 89.83962 
L 283.414218 89.83962 
L 290.241839 89.83962 
L 297.021457 81.504279 
L 303.807467 81.504279 
L 310.642432 81.504279 
L 317.448565 81.504279 
L 324.28353 81.504279 
L 331.103756 81.504279 
L 337.94241 81.504279 
L 344.729392 81.504279 
L 351.591122 81.504279 
L 358.462657 81.504279 
L 365.301312 81.504279 
L 372.092549 81.504279 
L 378.899758 81.504279 
L 385.738412 81.504279 
L 392.609948 81.504279 
L 399.434609 81.504279 
L 406.2986 81.504279 
L 413.132861 81.504279 
L 419.973776 81.504279 
L 426.836413 81.504279 
L 433.664631 81.504279 
L 440.53922 81.504279 
L 447.391636 81.504279 
L 454.266225 81.504279 
L 461.11864 81.504279 
L 467.966535 81.504279 
L 474.782307 81.504279 
L 481.644089 81.504279 
L 488.472308 81.504279 
L 495.316571 81.504279 
L 502.179208 81.504279 
L 509.033067 81.504279 
L 515.846292 81.504279 
L 522.707522 81.504279 
L 529.522711 81.504279 
L 536.383941 81.504279 
L 543.218202 81.504279 
L 550.059256 81.504279 
L 556.898608 81.504279 
L 563.733584 81.504279 
L 570.518668 81.504279 
L 577.344406 81.504279 
L 584.1574 81.504279 
L 590.965357 81.504279 
L 597.730785 72.415091 
L 604.543594 72.415091 
L 611.369332 72.415091 
L 618.195069 72.415091 
L 625.013229 72.415091 
L 631.857757 72.415091 
L 638.675917 72.415091 
L 645.461001 72.415091 
L 652.241806 72.415091 
L 659.022319 72.415091 
L 665.861671 72.415091 
L 672.687409 72.415091 
L 679.472493 72.415091 
L 686.298231 72.415091 
L 693.079845 72.415091 
" clip-path="url(#p07a7443146)" style="fill: none; stroke: #33bbee; stroke-width: 2.5; stroke-linecap: round"/>
   </g>
   <g id="patch_4">
    <path d="M 54.7125 478.44 
L 54.7125 7.2 
" style="fill: none; stroke: #262626; stroke-width: 1.25; stroke-linejoin: miter; stroke-linecap: square"/>
   </g>
   <g id="patch_5">
    <path d="M 54.7125 478.44 
L 724.3125 478.44 
" style="fill: none; stroke: #262626; stroke-width: 1.25; stroke-linejoin: miter; stroke-linecap: square"/>
   </g>
   <g id="line2d_39">
    <path d="M 54.7125 59.806759 
L 724.3125 59.806759 
" clip-path="url(#p07a7443146)" style="fill: none; stroke-dasharray: 9.25,4; stroke-dashoffset: 0; stroke: #000000; stroke-width: 2.5"/>
   </g>
   <g id="line2d_40">
    <path d="M 54.7125 20.210921 
L 724.3125 20.210921 
" clip-path="url(#p07a7443146)" style="fill: none; stroke-dasharray: 1.3,2.145; stroke-dashoffset: 0; stroke: #000000; stroke-opacity: 0.7; stroke-width: 1.3"/>
   </g>
   <g id="line2d_41">
    <path d="M 54.7125 109.367556 
L 724.3125 109.367556 
" clip-path="url(#p07a7443146)" style="fill: none; stroke-dasharray: 1.3,2.145; stroke-dashoffset: 0; stroke: #000000; stroke-opacity: 0.7; stroke-width: 1.3"/>
   </g>
   <g id="legend_1">
    <g id="patch_6">
     <path d="M 562.5125 473.44 
L 717.3125 473.44 
Q 719.3125 473.44 719.3125 471.44 
L 719.3125 329.429062 
Q 719.3125 327.429062 717.3125 327.429062 
L 562.5125 327.429062 
Q 560.5125 327.429062 560.5125 329.429062 
L 560.5125 471.44 
Q 560.5125 473.44 562.5125 473.44 
z
" style="fill: #ffffff; opacity: 0.9; stroke: #cccccc; stroke-linejoin: miter"/>
    </g>
    <g id="line2d_42">
     <path d="M 564.5125 335.215 
L 574.5125 335.215 
L 584.5125 335.215 
" style="fill: none; stroke: #0077bb; stroke-width: 2.5; stroke-linecap: round"/>
    </g>
    <g id="text_19">
     <!-- Bayesian Optimization -->
     <g style="fill: #262626" transform="translate(592.5125 338.715) scale(0.1 -0.1)">
      <defs>
       <path id="ArialMT-42" d="M 469 0 
L 469 4581 
L 2188 4581 
Q 2713 4581 3030 4442 
Q 3347 4303 3526 4014 
Q 3706 3725 3706 3409 
Q 3706 3116 3547 2856 
Q 3388 2597 3066 2438 
Q 3481 2316 3704 2022 
Q 3928 1728 3928 1328 
Q 3928 1006 3792 729 
Q 3656 453 3456 303 
Q 3256 153 2954 76 
Q 2653 0 2216 0 
L 469 0 
z
M 1075 2656 
L 2066 2656 
Q 2469 2656 2644 2709 
Q 2875 2778 2992 2937 
Q 3109 3097 3109 3338 
Q 3109 3566 3000 3739 
Q 2891 3913 2687 3977 
Q 2484 4041 1991 4041 
L 1075 4041 
L 1075 2656 
z
M 1075 541 
L 2216 541 
Q 2509 541 2628 563 
Q 2838 600 2978 687 
Q 3119 775 3209 942 
Q 3300 1109 3300 1328 
Q 3300 1584 3169 1773 
Q 3038 1963 2805 2039 
Q 2572 2116 2134 2116 
L 1075 2116 
L 1075 541 
z
" transform="scale(0.015625)"/>
       <path id="ArialMT-79" d="M 397 -1278 
L 334 -750 
Q 519 -800 656 -800 
Q 844 -800 956 -737 
Q 1069 -675 1141 -563 
Q 1194 -478 1313 -144 
Q 1328 -97 1363 -6 
L 103 3319 
L 709 3319 
L 1400 1397 
Q 1534 1031 1641 628 
Q 1738 1016 1872 1384 
L 2581 3319 
L 3144 3319 
L 1881 -56 
Q 1678 -603 1566 -809 
Q 1416 -1088 1222 -1217 
Q 1028 -1347 759 -1347 
Q 597 -1347 397 -1278 
z
" transform="scale(0.015625)"/>
       <path id="ArialMT-7a" d="M 125 0 
L 125 456 
L 2238 2881 
Q 1878 2863 1603 2863 
L 250 2863 
L 250 3319 
L 2963 3319 
L 2963 2947 
L 1166 841 
L 819 456 
Q 1197 484 1528 484 
L 3063 484 
L 3063 0 
L 125 0 
z
" transform="scale(0.015625)"/>
      </defs>
      <use xlink:href="#ArialMT-42"/>
      <use xlink:href="#ArialMT-61" transform="translate(66.699219 0)"/>
      <use xlink:href="#ArialMT-79" transform="translate(122.314453 0)"/>
      <use xlink:href="#ArialMT-65" transform="translate(172.314453 0)"/>
      <use xlink:href="#ArialMT-73" transform="translate(227.929688 0)"/>
      <use xlink:href="#ArialMT-69" transform="translate(277.929688 0)"/>
      <use xlink:href="#ArialMT-61" transform="translate(300.146484 0)"/>
      <use xlink:href="#ArialMT-6e" transform="translate(355.761719 0)"/>
      <use xlink:href="#ArialMT-20" transform="translate(411.376953 0)"/>
      <use xlink:href="#ArialMT-4f" transform="translate(439.160156 0)"/>
      <use xlink:href="#ArialMT-70" transform="translate(516.943359 0)"/>
      <use xlink:href="#ArialMT-74" transform="translate(572.558594 0)"/>
      <use xlink:href="#ArialMT-69" transform="translate(600.341797 0)"/>
      <use xlink:href="#ArialMT-6d" transform="translate(622.558594 0)"/>
      <use xlink:href="#ArialMT-69" transform="translate(705.859375 0)"/>
      <use xlink:href="#ArialMT-7a" transform="translate(728.076172 0)"/>
      <use xlink:href="#ArialMT-61" transform="translate(778.076172 0)"/>
      <use xlink:href="#ArialMT-74" transform="translate(833.691406 0)"/>
      <use xlink:href="#ArialMT-69" transform="translate(861.474609 0)"/>
      <use xlink:href="#ArialMT-6f" transform="translate(883.691406 0)"/>
      <use xlink:href="#ArialMT-6e" transform="translate(939.306641 0)"/>
     </g>
    </g>
    <g id="line2d_43">
     <path d="M 564.5125 349.4775 
L 574.5125 349.4775 
L 584.5125 349.4775 
" style="fill: none; stroke: #ee7733; stroke-width: 2.5; stroke-linecap: round"/>
    </g>
    <g id="text_20">
     <!-- Coordinate Search -->
     <g style="fill: #262626" transform="translate(592.5125 352.9775) scale(0.1 -0.1)">
      <defs>
       <path id="ArialMT-43" d="M 3763 1606 
L 4369 1453 
Q 4178 706 3683 314 
Q 3188 -78 2472 -78 
Q 1731 -78 1267 223 
Q 803 525 561 1097 
Q 319 1669 319 2325 
Q 319 3041 592 3573 
Q 866 4106 1370 4382 
Q 1875 4659 2481 4659 
Q 3169 4659 3637 4309 
Q 4106 3959 4291 3325 
L 3694 3184 
Q 3534 3684 3231 3912 
Q 2928 4141 2469 4141 
Q 1941 4141 1586 3887 
Q 1231 3634 1087 3207 
Q 944 2781 944 2328 
Q 944 1744 1114 1308 
Q 1284 872 1643 656 
Q 2003 441 2422 441 
Q 2931 441 3284 734 
Q 3638 1028 3763 1606 
z
" transform="scale(0.015625)"/>
       <path id="ArialMT-53" d="M 288 1472 
L 859 1522 
Q 900 1178 1048 958 
Q 1197 738 1509 602 
Q 1822 466 2213 466 
Q 2559 466 2825 569 
Q 3091 672 3220 851 
Q 3350 1031 3350 1244 
Q 3350 1459 3225 1620 
Q 3100 1781 2813 1891 
Q 2628 1963 1997 2114 
Q 1366 2266 1113 2400 
Q 784 2572 623 2826 
Q 463 3081 463 3397 
Q 463 3744 659 4045 
Q 856 4347 1234 4503 
Q 1613 4659 2075 4659 
Q 2584 4659 2973 4495 
Q 3363 4331 3572 4012 
Q 3781 3694 3797 3291 
L 3216 3247 
Q 3169 3681 2898 3903 
Q 2628 4125 2100 4125 
Q 1550 4125 1298 3923 
Q 1047 3722 1047 3438 
Q 1047 3191 1225 3031 
Q 1400 2872 2139 2705 
Q 2878 2538 3153 2413 
Q 3553 2228 3743 1945 
Q 3934 1663 3934 1294 
Q 3934 928 3725 604 
Q 3516 281 3123 101 
Q 2731 -78 2241 -78 
Q 1619 -78 1198 103 
Q 778 284 539 648 
Q 300 1013 288 1472 
z
" transform="scale(0.015625)"/>
      </defs>
      <use xlink:href="#ArialMT-43"/>
      <use xlink:href="#ArialMT-6f" transform="translate(72.216797 0)"/>
      <use xlink:href="#ArialMT-6f" transform="translate(127.832031 0)"/>
      <use xlink:href="#ArialMT-72" transform="translate(183.447266 0)"/>
      <use xlink:href="#ArialMT-64" transform="translate(216.748047 0)"/>
      <use xlink:href="#ArialMT-69" transform="translate(272.363281 0)"/>
      <use xlink:href="#ArialMT-6e" transform="translate(294.580078 0)"/>
      <use xlink:href="#ArialMT-61" transform="translate(350.195312 0)"/>
      <use xlink:href="#ArialMT-74" transform="translate(405.810547 0)"/>
      <use xlink:href="#ArialMT-65" transform="translate(433.59375 0)"/>
      <use xlink:href="#ArialMT-20" transform="translate(489.208984 0)"/>
      <use xlink:href="#ArialMT-53" transform="translate(516.992188 0)"/>
      <use xlink:href="#ArialMT-65" transform="translate(583.691406 0)"/>
      <use xlink:href="#ArialMT-61" transform="translate(639.306641 0)"/>
      <use xlink:href="#ArialMT-72" transform="translate(694.921875 0)"/>
      <use xlink:href="#ArialMT-63" transform="translate(728.222656 0)"/>
      <use xlink:href="#ArialMT-68" transform="translate(778.222656 0)"/>
     </g>
    </g>
    <g id="line2d_44">
     <path d="M 564.5125 363.622813 
L 574.5125 363.622813 
L 584.5125 363.622813 
" style="fill: none; stroke: #009988; stroke-width: 2.5; stroke-linecap: round"/>
    </g>
    <g id="text_21">
     <!-- Evolutionary Algorithm -->
     <g style="fill: #262626" transform="translate(592.5125 367.122813) scale(0.1 -0.1)">
      <defs>
       <path id="ArialMT-45" d="M 506 0 
L 506 4581 
L 3819 4581 
L 3819 4041 
L 1113 4041 
L 1113 2638 
L 3647 2638 
L 3647 2100 
L 1113 2100 
L 1113 541 
L 3925 541 
L 3925 0 
L 506 0 
z
" transform="scale(0.015625)"/>
       <path id="ArialMT-6c" d="M 409 0 
L 409 4581 
L 972 4581 
L 972 0 
L 409 0 
z
" transform="scale(0.015625)"/>
       <path id="ArialMT-41" d="M -9 0 
L 1750 4581 
L 2403 4581 
L 4278 0 
L 3588 0 
L 3053 1388 
L 1138 1388 
L 634 0 
L -9 0 
z
M 1313 1881 
L 2866 1881 
L 2388 3150 
Q 2169 3728 2063 4100 
Q 1975 3659 1816 3225 
L 1313 1881 
z
" transform="scale(0.015625)"/>
      </defs>
      <use xlink:href="#ArialMT-45"/>
      <use xlink:href="#ArialMT-76" transform="translate(66.699219 0)"/>
      <use xlink:href="#ArialMT-6f" transform="translate(116.699219 0)"/>
      <use xlink:href="#ArialMT-6c" transform="translate(172.314453 0)"/>
      <use xlink:href="#ArialMT-75" transform="translate(194.53125 0)"/>
      <use xlink:href="#ArialMT-74" transform="translate(250.146484 0)"/>
      <use xlink:href="#ArialMT-69" transform="translate(277.929688 0)"/>
      <use xlink:href="#ArialMT-6f" transform="translate(300.146484 0)"/>
      <use xlink:href="#ArialMT-6e" transform="translate(355.761719 0)"/>
      <use xlink:href="#ArialMT-61" transform="translate(411.376953 0)"/>
      <use xlink:href="#ArialMT-72" transform="translate(466.992188 0)"/>
      <use xlink:href="#ArialMT-79" transform="translate(500.292969 0)"/>
      <use xlink:href="#ArialMT-20" transform="translate(550.292969 0)"/>
      <use xlink:href="#ArialMT-41" transform="translate(572.576172 0)"/>
      <use xlink:href="#ArialMT-6c" transform="translate(639.275391 0)"/>
      <use xlink:href="#ArialMT-67" transform="translate(661.492188 0)"/>
      <use xlink:href="#ArialMT-6f" transform="translate(717.107422 0)"/>
      <use xlink:href="#ArialMT-72" transform="translate(772.722656 0)"/>
      <use xlink:href="#ArialMT-69" transform="translate(806.023438 0)"/>
      <use xlink:href="#ArialMT-74" transform="translate(828.240234 0)"/>
      <use xlink:href="#ArialMT-68" transform="translate(856.023438 0)"/>
      <use xlink:href="#ArialMT-6d" transform="translate(911.638672 0)"/>
     </g>
    </g>
    <g id="line2d_45">
     <path d="M 564.5125 378.007187 
L 574.5125 378.007187 
L 584.5125 378.007187 
" style="fill: none; stroke: #cc3311; stroke-width: 2.5; stroke-linecap: round"/>
    </g>
    <g id="text_22">
     <!-- Hill Climbing -->
     <g style="fill: #262626" transform="translate(592.5125 381.507187) scale(0.1 -0.1)">
      <defs>
       <path id="ArialMT-48" d="M 513 0 
L 513 4581 
L 1119 4581 
L 1119 2700 
L 3500 2700 
L 3500 4581 
L 4106 4581 
L 4106 0 
L 3500 0 
L 3500 2159 
L 1119 2159 
L 1119 0 
L 513 0 
z
" transform="scale(0.015625)"/>
       <path id="ArialMT-62" d="M 941 0 
L 419 0 
L 419 4581 
L 981 4581 
L 981 2947 
Q 1338 3394 1891 3394 
Q 2197 3394 2470 3270 
Q 2744 3147 2920 2923 
Q 3097 2700 3197 2384 
Q 3297 2069 3297 1709 
Q 3297 856 2875 390 
Q 2453 -75 1863 -75 
Q 1275 -75 941 416 
L 941 0 
z
M 934 1684 
Q 934 1088 1097 822 
Q 1363 388 1816 388 
Q 2184 388 2453 708 
Q 2722 1028 2722 1663 
Q 2722 2313 2464 2622 
Q 2206 2931 1841 2931 
Q 1472 2931 1203 2611 
Q 934 2291 934 1684 
z
" transform="scale(0.015625)"/>
      </defs>
      <use xlink:href="#ArialMT-48"/>
      <use xlink:href="#ArialMT-69" transform="translate(72.216797 0)"/>
      <use xlink:href="#ArialMT-6c" transform="translate(94.433594 0)"/>
      <use xlink:href="#ArialMT-6c" transform="translate(116.650391 0)"/>
      <use xlink:href="#ArialMT-20" transform="translate(138.867188 0)"/>
      <use xlink:href="#ArialMT-43" transform="translate(166.650391 0)"/>
      <use xlink:href="#ArialMT-6c" transform="translate(238.867188 0)"/>
      <use xlink:href="#ArialMT-69" transform="translate(261.083984 0)"/>
      <use xlink:href="#ArialMT-6d" transform="translate(283.300781 0)"/>
      <use xlink:href="#ArialMT-62" transform="translate(366.601562 0)"/>
      <use xlink:href="#ArialMT-69" transform="translate(422.216797 0)"/>
      <use xlink:href="#ArialMT-6e" transform="translate(444.433594 0)"/>
      <use xlink:href="#ArialMT-67" transform="translate(500.048828 0)"/>
     </g>
    </g>
    <g id="line2d_46">
     <path d="M 564.5125 392.269688 
L 574.5125 392.269688 
L 584.5125 392.269688 
" style="fill: none; stroke: #aa3377; stroke-width: 2.5; stroke-linecap: round"/>
    </g>
    <g id="text_23">
     <!-- Random Search -->
     <g style="fill: #262626" transform="translate(592.5125 395.769688) scale(0.1 -0.1)">
      <defs>
       <path id="ArialMT-52" d="M 503 0 
L 503 4581 
L 2534 4581 
Q 3147 4581 3465 4457 
Q 3784 4334 3975 4021 
Q 4166 3709 4166 3331 
Q 4166 2844 3850 2509 
Q 3534 2175 2875 2084 
Q 3116 1969 3241 1856 
Q 3506 1613 3744 1247 
L 4541 0 
L 3778 0 
L 3172 953 
Q 2906 1366 2734 1584 
Q 2563 1803 2427 1890 
Q 2291 1978 2150 2013 
Q 2047 2034 1813 2034 
L 1109 2034 
L 1109 0 
L 503 0 
z
M 1109 2559 
L 2413 2559 
Q 2828 2559 3062 2645 
Q 3297 2731 3419 2920 
Q 3541 3109 3541 3331 
Q 3541 3656 3305 3865 
Q 3069 4075 2559 4075 
L 1109 4075 
L 1109 2559 
z
" transform="scale(0.015625)"/>
      </defs>
      <use xlink:href="#ArialMT-52"/>
      <use xlink:href="#ArialMT-61" transform="translate(72.216797 0)"/>
      <use xlink:href="#ArialMT-6e" transform="translate(127.832031 0)"/>
      <use xlink:href="#ArialMT-64" transform="translate(183.447266 0)"/>
      <use xlink:href="#ArialMT-6f" transform="translate(239.0625 0)"/>
      <use xlink:href="#ArialMT-6d" transform="translate(294.677734 0)"/>
      <use xlink:href="#ArialMT-20" transform="translate(377.978516 0)"/>
      <use xlink:href="#ArialMT-53" transform="translate(405.761719 0)"/>
      <use xlink:href="#ArialMT-65" transform="translate(472.460938 0)"/>
      <use xlink:href="#ArialMT-61" transform="translate(528.076172 0)"/>
      <use xlink:href="#ArialMT-72" transform="translate(583.691406 0)"/>
      <use xlink:href="#ArialMT-63" transform="translate(616.992188 0)"/>
      <use xlink:href="#ArialMT-68" transform="translate(666.992188 0)"/>
     </g>
    </g>
    <g id="line2d_47">
     <path d="M 564.5125 406.536875 
L 574.5125 406.536875 
L 584.5125 406.536875 
" style="fill: none; stroke: #33bbee; stroke-width: 2.5; stroke-linecap: round"/>
    </g>
    <g id="text_24">
     <!-- Simulated Annealing -->
     <g style="fill: #262626" transform="translate(592.5125 410.036875) scale(0.1 -0.1)">
      <use xlink:href="#ArialMT-53"/>
      <use xlink:href="#ArialMT-69" transform="translate(66.699219 0)"/>
      <use xlink:href="#ArialMT-6d" transform="translate(88.916016 0)"/>
      <use xlink:href="#ArialMT-75" transform="translate(172.216797 0)"/>
      <use xlink:href="#ArialMT-6c" transform="translate(227.832031 0)"/>
      <use xlink:href="#ArialMT-61" transform="translate(250.048828 0)"/>
      <use xlink:href="#ArialMT-74" transform="translate(305.664062 0)"/>
      <use xlink:href="#ArialMT-65" transform="translate(333.447266 0)"/>
      <use xlink:href="#ArialMT-64" transform="translate(389.0625 0)"/>
      <use xlink:href="#ArialMT-20" transform="translate(444.677734 0)"/>
      <use xlink:href="#ArialMT-41" transform="translate(466.960938 0)"/>
      <use xlink:href="#ArialMT-6e" transform="translate(533.660156 0)"/>
      <use xlink:href="#ArialMT-6e" transform="translate(589.275391 0)"/>
      <use xlink:href="#ArialMT-65" transform="translate(644.890625 0)"/>
      <use xlink:href="#ArialMT-61" transform="translate(700.505859 0)"/>
      <use xlink:href="#ArialMT-6c" transform="translate(756.121094 0)"/>
      <use xlink:href="#ArialMT-69" transform="translate(778.337891 0)"/>
      <use xlink:href="#ArialMT-6e" transform="translate(800.554688 0)"/>
      <use xlink:href="#ArialMT-67" transform="translate(856.169922 0)"/>
     </g>
    </g>
    <g id="patch_7">
     <path d="M 564.5125 424.42125 
L 584.5125 424.42125 
L 584.5125 417.42125 
L 564.5125 417.42125 
z
" style="opacity: 0.15; stroke: #000000; stroke-linejoin: miter"/>
    </g>
    <g id="text_25">
     <!-- Grid Search Avg ± Std -->
     <g style="fill: #262626" transform="translate(592.5125 424.42125) scale(0.1 -0.1)">
      <defs>
       <path id="ArialMT-47" d="M 2638 1797 
L 2638 2334 
L 4578 2338 
L 4578 638 
Q 4131 281 3656 101 
Q 3181 -78 2681 -78 
Q 2006 -78 1454 211 
Q 903 500 622 1047 
Q 341 1594 341 2269 
Q 341 2938 620 3517 
Q 900 4097 1425 4378 
Q 1950 4659 2634 4659 
Q 3131 4659 3532 4498 
Q 3934 4338 4162 4050 
Q 4391 3763 4509 3300 
L 3963 3150 
Q 3859 3500 3706 3700 
Q 3553 3900 3268 4020 
Q 2984 4141 2638 4141 
Q 2222 4141 1919 4014 
Q 1616 3888 1430 3681 
Q 1244 3475 1141 3228 
Q 966 2803 966 2306 
Q 966 1694 1177 1281 
Q 1388 869 1791 669 
Q 2194 469 2647 469 
Q 3041 469 3416 620 
Q 3791 772 3984 944 
L 3984 1797 
L 2638 1797 
z
" transform="scale(0.015625)"/>
       <path id="ArialMT-b1" d="M 1491 813 
L 1491 2072 
L 244 2072 
L 244 2594 
L 1491 2594 
L 1491 3841 
L 2022 3841 
L 2022 2594 
L 3269 2594 
L 3269 2072 
L 2022 2072 
L 2022 813 
L 1491 813 
z
M 3269 0 
L 244 0 
L 244 525 
L 3269 525 
L 3269 0 
z
" transform="scale(0.015625)"/>
      </defs>
      <use xlink:href="#ArialMT-47"/>
      <use xlink:href="#ArialMT-72" transform="translate(77.783203 0)"/>
      <use xlink:href="#ArialMT-69" transform="translate(111.083984 0)"/>
      <use xlink:href="#ArialMT-64" transform="translate(133.300781 0)"/>
      <use xlink:href="#ArialMT-20" transform="translate(188.916016 0)"/>
      <use xlink:href="#ArialMT-53" transform="translate(216.699219 0)"/>
      <use xlink:href="#ArialMT-65" transform="translate(283.398438 0)"/>
      <use xlink:href="#ArialMT-61" transform="translate(339.013672 0)"/>
      <use xlink:href="#ArialMT-72" transform="translate(394.628906 0)"/>
      <use xlink:href="#ArialMT-63" transform="translate(427.929688 0)"/>
      <use xlink:href="#ArialMT-68" transform="translate(477.929688 0)"/>
      <use xlink:href="#ArialMT-20" transform="translate(533.544922 0)"/>
      <use xlink:href="#ArialMT-41" transform="translate(555.828125 0)"/>
      <use xlink:href="#ArialMT-76" transform="translate(620.777344 0)"/>
      <use xlink:href="#ArialMT-67" transform="translate(670.777344 0)"/>
      <use xlink:href="#ArialMT-20" transform="translate(726.392578 0)"/>
      <use xlink:href="#ArialMT-b1" transform="translate(754.175781 0)"/>
      <use xlink:href="#ArialMT-20" transform="translate(809.058594 0)"/>
      <use xlink:href="#ArialMT-53" transform="translate(836.841797 0)"/>
      <use xlink:href="#ArialMT-74" transform="translate(903.541016 0)"/>
      <use xlink:href="#ArialMT-64" transform="translate(931.324219 0)"/>
     </g>
    </g>
    <g id="line2d_48">
     <path d="M 564.5125 435.18375 
L 574.5125 435.18375 
L 584.5125 435.18375 
" style="fill: none; stroke-dasharray: 9.25,4; stroke-dashoffset: 0; stroke: #000000; stroke-width: 2.5"/>
    </g>
    <g id="text_26">
     <!-- Grid Search -->
     <g style="fill: #262626" transform="translate(592.5125 438.68375) scale(0.1 -0.1)">
      <use xlink:href="#ArialMT-47"/>
      <use xlink:href="#ArialMT-72" transform="translate(77.783203 0)"/>
      <use xlink:href="#ArialMT-69" transform="translate(111.083984 0)"/>
      <use xlink:href="#ArialMT-64" transform="translate(133.300781 0)"/>
      <use xlink:href="#ArialMT-20" transform="translate(188.916016 0)"/>
      <use xlink:href="#ArialMT-53" transform="translate(216.699219 0)"/>
      <use xlink:href="#ArialMT-65" transform="translate(283.398438 0)"/>
      <use xlink:href="#ArialMT-61" transform="translate(339.013672 0)"/>
      <use xlink:href="#ArialMT-72" transform="translate(394.628906 0)"/>
      <use xlink:href="#ArialMT-63" transform="translate(427.929688 0)"/>
      <use xlink:href="#ArialMT-68" transform="translate(477.929688 0)"/>
     </g>
    </g>
    <g id="line2d_49">
     <path d="M 564.5125 449.450938 
L 574.5125 449.450938 
L 584.5125 449.450938 
" style="fill: none; stroke-dasharray: 1.3,2.145; stroke-dashoffset: 0; stroke: #000000; stroke-opacity: 0.7; stroke-width: 1.3"/>
    </g>
    <g id="text_27">
     <!-- Grid Search Max (misurato) -->
     <g style="fill: #262626" transform="translate(592.5125 452.950938) scale(0.1 -0.1)">
      <defs>
       <path id="ArialMT-78" d="M 47 0 
L 1259 1725 
L 138 3319 
L 841 3319 
L 1350 2541 
Q 1494 2319 1581 2169 
Q 1719 2375 1834 2534 
L 2394 3319 
L 3066 3319 
L 1919 1756 
L 3153 0 
L 2463 0 
L 1781 1031 
L 1600 1309 
L 728 0 
L 47 0 
z
" transform="scale(0.015625)"/>
      </defs>
      <use xlink:href="#ArialMT-47"/>
      <use xlink:href="#ArialMT-72" transform="translate(77.783203 0)"/>
      <use xlink:href="#ArialMT-69" transform="translate(111.083984 0)"/>
      <use xlink:href="#ArialMT-64" transform="translate(133.300781 0)"/>
      <use xlink:href="#ArialMT-20" transform="translate(188.916016 0)"/>
      <use xlink:href="#ArialMT-53" transform="translate(216.699219 0)"/>
      <use xlink:href="#ArialMT-65" transform="translate(283.398438 0)"/>
      <use xlink:href="#ArialMT-61" transform="translate(339.013672 0)"/>
      <use xlink:href="#ArialMT-72" transform="translate(394.628906 0)"/>
      <use xlink:href="#ArialMT-63" transform="translate(427.929688 0)"/>
      <use xlink:href="#ArialMT-68" transform="translate(477.929688 0)"/>
      <use xlink:href="#ArialMT-20" transform="translate(533.544922 0)"/>
      <use xlink:href="#ArialMT-4d" transform="translate(561.328125 0)"/>
      <use xlink:href="#ArialMT-61" transform="translate(644.628906 0)"/>
      <use xlink:href="#ArialMT-78" transform="translate(700.244141 0)"/>
      <use xlink:href="#ArialMT-20" transform="translate(750.244141 0)"/>
      <use xlink:href="#ArialMT-28" transform="translate(778.027344 0)"/>
      <use xlink:href="#ArialMT-6d" transform="translate(811.328125 0)"/>
      <use xlink:href="#ArialMT-69" transform="translate(894.628906 0)"/>
      <use xlink:href="#ArialMT-73" transform="translate(916.845703 0)"/>
      <use xlink:href="#ArialMT-75" transform="translate(966.845703 0)"/>
      <use xlink:href="#ArialMT-72" transform="translate(1022.460938 0)"/>
      <use xlink:href="#ArialMT-61" transform="translate(1055.761719 0)"/>
      <use xlink:href="#ArialMT-74" transform="translate(1111.376953 0)"/>
      <use xlink:href="#ArialMT-6f" transform="translate(1139.160156 0)"/>
      <use xlink:href="#ArialMT-29" transform="translate(1194.775391 0)"/>
     </g>
    </g>
    <g id="line2d_50">
     <path d="M 564.5125 463.835312 
L 574.5125 463.835312 
L 584.5125 463.835312 
" style="fill: none; stroke-dasharray: 1.3,2.145; stroke-dashoffset: 0; stroke: #000000; stroke-opacity: 0.7; stroke-width: 1.3"/>
    </g>
    <g id="text_28">
     <!-- Grid Search Min (misurato) -->
     <g style="fill: #262626" transform="translate(592.5125 467.335312) scale(0.1 -0.1)">
      <use xlink:href="#ArialMT-47"/>
      <use xlink:href="#ArialMT-72" transform="translate(77.783203 0)"/>
      <use xlink:href="#ArialMT-69" transform="translate(111.083984 0)"/>
      <use xlink:href="#ArialMT-64" transform="translate(133.300781 0)"/>
      <use xlink:href="#ArialMT-20" transform="translate(188.916016 0)"/>
      <use xlink:href="#ArialMT-53" transform="translate(216.699219 0)"/>
      <use xlink:href="#ArialMT-65" transform="translate(283.398438 0)"/>
      <use xlink:href="#ArialMT-61" transform="translate(339.013672 0)"/>
      <use xlink:href="#ArialMT-72" transform="translate(394.628906 0)"/>
      <use xlink:href="#ArialMT-63" transform="translate(427.929688 0)"/>
      <use xlink:href="#ArialMT-68" transform="translate(477.929688 0)"/>
      <use xlink:href="#ArialMT-20" transform="translate(533.544922 0)"/>
      <use xlink:href="#ArialMT-4d" transform="translate(561.328125 0)"/>
      <use xlink:href="#ArialMT-69" transform="translate(644.628906 0)"/>
      <use xlink:href="#ArialMT-6e" transform="translate(666.845703 0)"/>
      <use xlink:href="#ArialMT-20" transform="translate(722.460938 0)"/>
      <use xlink:href="#ArialMT-28" transform="translate(750.244141 0)"/>
      <use xlink:href="#ArialMT-6d" transform="translate(783.544922 0)"/>
      <use xlink:href="#ArialMT-69" transform="translate(866.845703 0)"/>
      <use xlink:href="#ArialMT-73" transform="translate(889.0625 0)"/>
      <use xlink:href="#ArialMT-75" transform="translate(939.0625 0)"/>
      <use xlink:href="#ArialMT-72" transform="translate(994.677734 0)"/>
      <use xlink:href="#ArialMT-61" transform="translate(1027.978516 0)"/>
      <use xlink:href="#ArialMT-74" transform="translate(1083.59375 0)"/>
      <use xlink:href="#ArialMT-6f" transform="translate(1111.376953 0)"/>
      <use xlink:href="#ArialMT-29" transform="translate(1166.992188 0)"/>
     </g>
    </g>
   </g>
  </g>
 </g>
 <defs>
  <clipPath id="p07a7443146">
   <rect x="54.7125" y="7.2" width="669.6" height="471.24"/>
  </clipPath>
 </defs>
</svg>
